<svg xmlns="http://www.w3.org/2000/svg" width="64" height="64" viewBox="0 0 64 64">
    <g fill="none" fill-rule="evenodd" stroke="#FFF" stroke-linecap="round" stroke-linejoin="round" stroke-width="2">
        <path d="M19.98 50h24.04c-1.3-7.34-1.36-16.14-.16-23.6v-.02c.64-4.16 1.7-7.88 3.14-10.72L38.74 14c-.82 2.1-3.52 3.66-6.74 3.66S26.08 16.1 25.26 14L17 15.66c1.44 2.84 2.5 6.56 3.14 10.72v.02c1.2 7.46 1.14 16.26-.16 23.6z"/>
        <path d="M16.966 17L-1 25.092l2.266 5.904 17.526-7.216M3 23l2.542 5.988M46.826 17l17.966 8.092-2.266 5.904L45 23.78M59.542 23L57 28.988M12 35l4.89 4.89L12 44.78M17.096 40H7M51.89 35L47 39.89l4.89 4.89M47 40h10.096"/>
    </g>
</svg>
