<svg xmlns="http://www.w3.org/2000/svg" xmlns:xlink="http://www.w3.org/1999/xlink" width="62" height="76" viewBox="0 0 62 76">
    <defs>
        <linearGradient id="b" x1="28.624%" x2="57.988%" y1="6.997%" y2="61.187%">
            <stop offset="0%" stop-color="#A7745A"/>
            <stop offset="100%" stop-color="#A7745A" stop-opacity="0"/>
        </linearGradient>
        <path id="a" d="M51.78 40.376C51.889 51.878 61.89 55.705 62 55.754c-.085.27-1.598 5.454-5.27 10.81-3.173 4.629-6.467 9.242-11.656 9.337-5.098.094-6.737-3.017-12.566-3.017-5.828 0-7.65 2.922-12.475 3.111-5.009.19-8.823-5.006-12.023-9.62-6.539-9.435-11.536-26.662-4.826-38.29 3.333-5.776 9.29-9.432 15.756-9.526 4.918-.094 9.56 3.302 12.567 3.302 3.004 0 8.645-4.084 14.576-3.484 2.483.103 9.451 1.001 13.926 7.539-.36.223-8.315 4.845-8.228 14.46m-9.582-28.241C44.858 8.922 46.647 4.45 46.159 0c-3.833.154-8.467 2.55-11.217 5.76-2.463 2.843-4.621 7.394-4.039 11.756 4.272.33 8.636-2.167 11.296-5.381"/>
        <filter id="c" width="101.6%" height="101.3%" x="-.8%" y="-.7%" filterUnits="objectBoundingBox">
            <feOffset dy="1" in="SourceAlpha" result="shadowOffsetInner1"/>
            <feComposite in="shadowOffsetInner1" in2="SourceAlpha" k2="-1" k3="1" operator="arithmetic" result="shadowInnerInner1"/>
            <feColorMatrix in="shadowInnerInner1" values="0 0 0 0 1 0 0 0 0 1 0 0 0 0 1 0 0 0 1 0"/>
        </filter>
    </defs>
    <g fill="none" fill-rule="nonzero">
        <use fill="#FFF" xlink:href="#a"/>
        <use fill="url(#b)" fill-opacity=".3" xlink:href="#a"/>
        <use fill="#000" filter="url(#c)" xlink:href="#a"/>
    </g>
</svg>
