<svg xmlns="http://www.w3.org/2000/svg" width="79" height="12" viewBox="0 0 79 12">
    <path fill="#FFF" fill-rule="evenodd" d="M6.092 5.337c.975 0 1.809.326 2.5.977.692.651 1.038 1.436 1.038 2.354 0 .92-.346 1.704-1.037 2.355-.692.652-1.526.977-2.501.977H.807v-1.353h5.285c.58 0 1.073-.194 1.48-.584.414-.384.621-.849.621-1.395 0-.545-.207-1.013-.62-1.402a2.082 2.082 0 0 0-1.481-.576H3.538c-.975 0-1.809-.326-2.5-.977C.346 5.062 0 4.277 0 3.358c0-.918.346-1.703 1.038-2.355.691-.65 1.525-.976 2.5-.976h5.418v1.352H3.538c-.58 0-1.073.192-1.48.576-.414.39-.622.858-.622 1.403 0 .546.208 1.01.621 1.395.408.39.901.584 1.48.584h2.555zm39.444 5.31c1.06 0 2.004-.322 2.832-.968l.958.96c-1.094.907-2.358 1.361-3.79 1.361-1.65 0-3.057-.584-4.224-1.753-1.166-1.17-1.75-2.58-1.75-4.234 0-1.653.584-3.064 1.75-4.233C42.48.611 43.886.027 45.536.027c1.432 0 2.696.45 3.79 1.352l-.958.969a4.491 4.491 0 0 0-3.107-.96 4.485 4.485 0 0 0-2.99 1.352c-.9.902-1.35 1.993-1.35 3.273s.45 2.372 1.35 3.273c.899.908 1.987 1.361 3.265 1.361zM22.433 1.011c.746.714 1.119 1.509 1.119 2.525s-.373 1.814-1.12 2.533c-.745.72-1.642 1.008-2.69 1.008H15.27V12h-1.596V5.846h6.066c.652 0 1.211-.236 1.68-.681.46-.446.692-1 .692-1.633 0-.628-.231-1.172-.693-1.623a2.359 2.359 0 0 0-1.679-.678h-6.066V0h6.066c1.049 0 1.946.291 2.692 1.01zM55.277 10.5h7.781V12h-9.116v-1.5h1.335zm.796-3.75H53.942v-1.5H60.779v1.5h-4.706zM53.942 0h9.116v1.5h-9.116V0zm22.446 1.847C77.596 3.016 78.2 4.358 78.2 6.012c0 1.653-.604 2.996-1.812 4.165-1.203 1.169-2.655 1.683-4.356 1.683h-3.417v-1.2h3.417c1.318 0 2.44-.462 3.368-1.37.933-.907 1.4-2.007 1.4-3.281 0-1.28-.467-2.377-1.4-3.278-.928-.908-2.05-1.371-3.368-1.371h-3.417V.16h3.417c1.701 0 3.153.518 4.356 1.687zM31.149 0l5.319 12h-1.515l-.69-1.492-.612-1.32-2.502-5.653-2.501 5.626-.613 1.352-.69 1.487h-1.514L31.15 0z"/>
</svg>
