<svg xmlns="http://www.w3.org/2000/svg" width="103" height="16" viewBox="0 0 103 16">
    <path fill="#FFF" fill-rule="evenodd" d="M8.018 7.116c1.284 0 2.381.434 3.292 1.302.91.869 1.365 1.916 1.365 3.14 0 1.225-.455 2.271-1.365 3.14C10.4 15.566 9.302 16 8.018 16H1.062v-1.804h6.956c.763 0 1.413-.26 1.95-.779.544-.512.816-1.131.816-1.859 0-.727-.272-1.35-.817-1.87-.536-.512-1.186-.768-1.949-.768H4.657c-1.284 0-2.38-.435-3.291-1.303C.456 6.75 0 5.702 0 4.477c0-1.224.455-2.27 1.366-3.139C2.276.47 3.373.036 4.656.036h7.132v1.803H4.657c-.763 0-1.412.256-1.95.768-.544.52-.816 1.143-.816 1.87 0 .728.272 1.347.817 1.86a2.7 2.7 0 0 0 1.949.779h3.361zm51.918 7.08c1.396 0 2.638-.43 3.728-1.291l1.26 1.28C63.485 15.395 61.822 16 59.937 16c-2.171 0-4.024-.78-5.56-2.338-1.534-1.558-2.302-3.44-2.302-5.644s.768-4.086 2.303-5.645C55.912.815 57.765.036 59.936.036c1.886 0 3.548.6 4.989 1.803L63.664 3.13c-1.2-.942-2.563-1.369-4.09-1.28-1.535.097-2.847.698-3.936 1.804-1.184 1.202-1.776 2.657-1.776 4.364 0 1.707.592 3.162 1.776 4.364 1.184 1.21 2.616 1.814 4.298 1.814zM29.526 1.348C30.51 2.299 31 3.36 31 4.714c0 1.355-.491 2.42-1.473 3.378-.982.96-2.163 1.344-3.543 1.344H20.1V16H18V7.795h7.984c.858 0 1.594-.315 2.21-.909a2.946 2.946 0 0 0 .912-2.176c0-.838-.304-1.564-.912-2.165-.616-.594-1.352-.904-2.21-.904H18V0h7.984c1.38 0 2.56.389 3.543 1.348zM72.759 14H83v2H71v-2h1.758zm1.048-5H71V7h9v2h-6.194zM71 0h12v2H71V0zm29.544 2.462c1.59 1.559 2.386 3.35 2.386 5.554s-.795 3.994-2.386 5.553c-1.582 1.559-3.493 2.244-5.732 2.244h-4.498v-1.6h4.497c1.735 0 3.212-.616 4.433-1.826 1.229-1.21 1.843-2.676 1.843-4.375 0-1.708-.614-3.169-1.843-4.371-1.22-1.21-2.698-1.828-4.432-1.828H90.314v-1.6h4.498c2.239 0 4.15.69 5.732 2.25zM41 0l7 16h-1.994l-.907-1.989-.806-1.76L41 4.713l-3.293 7.502-.806 1.802L35.994 16H34l7-16z"/>
</svg>
