<svg xmlns="http://www.w3.org/2000/svg" width="64" height="64" viewBox="0 0 64 64">
    <g fill="none" fill-rule="evenodd" stroke="#FFF" stroke-linecap="round" stroke-linejoin="round" stroke-width="2">
        <path d="M40.737 36.655l-8.258 8.258c-3.752 3.752-10.51 5.362-14.276 1.63.008.01-.112-.11-.102-.1-3.732-3.768-3.516-11.92.236-15.674l8.258-8.256-5.656-5.656-9.26 9.258c-7.272 7.272-7.712 18.624-.44 25.896 7.272 7.272 18.624 6.832 25.896-.44l9.258-9.26-5.656-5.656zM16.402 21.806l5.656 5.656M36.616 41.019l5.656 5.656M31.718 18.77c7.47 0 13.525 6.055 13.525 13.524M31.718 12.28c11.055 0 20.018 8.96 20.018 20.015M31.718 6.015C46.233 6.015 58 17.78 58 32.295"/>
    </g>
</svg>
