<svg xmlns="http://www.w3.org/2000/svg" width="64" height="64" viewBox="0 0 64 64">
    <g fill="none" fill-rule="evenodd" stroke="#FFF" stroke-linecap="round" stroke-linejoin="round" stroke-width="2">
        <path d="M36 40.11V13a4 4 0 0 0-8 0v27.11c-2.906 1.692-4.678 5.12-3.754 8.898.692 2.828 3 5.11 5.834 5.77C35.332 55.998 40 52.044 40 47c0-2.952-1.618-5.504-4-6.89zM32 29v16"/>
        <path d="M34 47a2 2 0 1 1-4.001-.001A2 2 0 0 1 34 47zM46 38c1.75-4.145 2-5.703 2-9.135 0-5.42-2.798-10.167-7-12.865"/>
        <path d="M52 34.918L45.905 40 42 34M20 19c-2.855 3.439-3.522 4.839-4.446 8.066C14.097 32.162 15.6 37.359 19.05 41"/>
        <path d="M13 20.32L20.646 17 23 24"/>
    </g>
</svg>
