<svg xmlns="http://www.w3.org/2000/svg" width="64" height="64" viewBox="0 0 64 64">
    <g fill="#FFF" fill-rule="evenodd">
        <path d="M54 45H17V12a1 1 0 0 0-2 0v34a1 1 0 0 0 1 1h38a1 1 0 0 0 0-2M12 21h-2a1 1 0 0 0 0 2h2a1 1 0 0 0 0-2M12 13h-2a1 1 0 0 0 0 2h2a1 1 0 0 0 0-2M12 29h-2a1 1 0 0 0 0 2h2a1 1 0 0 0 0-2M12 37h-2a1 1 0 0 0 0 2h2a1 1 0 0 0 0-2M12 45h-2a1 1 0 0 0 0 2h2a1 1 0 0 0 0-2M16 49a1 1 0 0 0-1 1v2a1 1 0 0 0 2 0v-2a1 1 0 0 0-1-1M24 49a1 1 0 0 0-1 1v2a1 1 0 0 0 2 0v-2a1 1 0 0 0-1-1M32 49a1 1 0 0 0-1 1v2a1 1 0 0 0 2 0v-2a1 1 0 0 0-1-1M40 49a1 1 0 0 0-1 1v2a1 1 0 0 0 2 0v-2a1 1 0 0 0-1-1M48 49a1 1 0 0 0-1 1v2a1 1 0 0 0 2 0v-2a1 1 0 0 0-1-1"/>
        <path d="M40.555 27.168a1 1 0 0 0-1.386.278l-3.046 4.566-3.228-6.46a1.01 1.01 0 0 0-.964-.55c-.406.03-.75.298-.88.682l-3.488 10.464-2.856-2.854a.975.975 0 0 0-.866-.28c-.318.05-.59.252-.736.538l-4 8a1.002 1.002 0 0 0 1.79.896l3.378-6.76 3.02 3.02a.99.99 0 0 0 .938.264.995.995 0 0 0 .718-.656l3.236-9.708 2.92 5.84c.16.318.478.528.832.55a.976.976 0 0 0 .896-.444l3.444-5.168 5.168 3.446c.25.168.564.208.852.122a.999.999 0 0 0 .632-.582l8-20a1 1 0 0 0-1.856-.744l-7.544 18.856-4.974-3.316z"/>
    </g>
</svg>
