<svg xmlns="http://www.w3.org/2000/svg" width="19" height="16" viewBox="0 0 19 16">
    <path fill="#FFF" fill-rule="evenodd" d="M11.96.189c-1.702.635-2.777 2.274-2.655 4.067l.04.692-.68-.085C6.187 4.54 4.022 3.437 2.183 1.587L1.284.669l-.23.678c-.49 1.511-.178 3.107.843 4.18.545.594.422.678-.517.325-.327-.113-.613-.197-.64-.155-.095.099.231 1.384.49 1.892.354.707 1.075 1.398 1.866 1.808l.667.325-.79.014c-.762 0-.79.014-.707.311.272.918 1.347 1.893 2.546 2.317l.844.296-.735.452a7.491 7.491 0 0 1-3.65 1.045c-.613.014-1.117.07-1.117.113 0 .14 1.662.931 2.628 1.243 2.9.918 6.346.522 8.933-1.046 1.838-1.116 3.676-3.333 4.535-5.48.463-1.144.926-3.234.926-4.236 0-.65.04-.735.803-1.512.45-.452.871-.946.953-1.087.137-.269.122-.269-.572-.029-1.157.424-1.32.368-.748-.268.421-.452.926-1.271.926-1.511 0-.042-.204.028-.436.155-.245.142-.79.354-1.199.48l-.735.241-.667-.467C15.133.5 14.617.217 14.344.132c-.695-.197-1.758-.17-2.384.057z" opacity=".2"/>
</svg>
