<svg xmlns="http://www.w3.org/2000/svg" width="64" height="64" viewBox="0 0 64 64">
    <g fill="none" fill-rule="evenodd" stroke="#FFF" stroke-linecap="round" stroke-linejoin="round" stroke-width="2">
        <path d="M19 40.004C21.78 48.821 25.815 52 33 52c7.184 0 11.221-3.18 14-12m2-23c-2.143-5.491-5.242-9.116-12-10m-8 0c-6.246 1.063-10.03 4.288-12 10"/>
        <path d="M23 47c0 7.548 4.477 12 10 12s10-4.452 10-12M20 17h25c6.075 0 11 4.925 11 11s-4.925 11-11 11H20c-6.075 0-11-4.925-11-11s4.925-11 11-11z"/>
        <path d="M20 24h26a4 4 0 1 1 0 8H20a4 4 0 1 1 0-8zM31.282 5h4.436c.446 0 .607.046.77.134.163.087.291.215.378.378.088.163.134.324.134.77v9.436c0 .446-.046.607-.134.77a.909.909 0 0 1-.378.378c-.163.088-.324.134-.77.134h-4.436c-.446 0-.607-.046-.77-.134a.909.909 0 0 1-.378-.378c-.088-.163-.134-.324-.134-.77V6.282c0-.446.046-.607.134-.77a.909.909 0 0 1 .378-.378c.163-.088.324-.134.77-.134z"/>
    </g>
</svg>
